<?xml version="1.0" encoding="utf-8"?>
<!-- Generator: Adobe Illustrator 22.0.1, SVG Export Plug-In . SVG Version: 6.00 Build 0)  -->
<svg version="1.1" id="Capa_1" xmlns="http://www.w3.org/2000/svg" xmlns:xlink="http://www.w3.org/1999/xlink" x="0px" y="0px"
	 viewBox="0 0 300 300" style="enable-background:new 0 0 300 300;" xml:space="preserve">
<style type="text/css">
	.st0{fill:#B97231;}
</style>
<g id="Capa_3">
	<g>
		<g>
			<path class="st0" d="M253.7,75.8H46.3c-5.1,0-9.2-4.1-9.2-9.2s4.1-9.2,9.2-9.2h207.5c5.1,0,9.2,4.1,9.2,9.2
				S258.8,75.8,253.7,75.8z"/>
		</g>
		<g>
			<path class="st0" d="M253.7,242.7H46.3c-5.1,0-9.2-4.1-9.2-9.2c0-5.1,4.1-9.2,9.2-9.2h207.5c5.1,0,9.2,4.1,9.2,9.2
				C263,238.5,258.8,242.7,253.7,242.7z"/>
		</g>
		<g>
			<path class="st0" d="M253.7,159.2H46.3c-5.1,0-9.2-4.1-9.2-9.2c0-5.1,4.1-9.2,9.2-9.2h207.5c5.1,0,9.2,4.1,9.2,9.2
				C263,155.1,258.8,159.2,253.7,159.2z"/>
		</g>
	</g>
</g>
</svg>
