<?xml version="1.0" encoding="utf-8"?>
<!-- Generator: Adobe Illustrator 22.0.1, SVG Export Plug-In . SVG Version: 6.00 Build 0)  -->
<svg version="1.1" id="Capa_1" xmlns="http://www.w3.org/2000/svg" xmlns:xlink="http://www.w3.org/1999/xlink" x="0px" y="0px"
	 viewBox="0 0 300 300" style="enable-background:new 0 0 300 300;" xml:space="preserve">
<style type="text/css">
	.st0{fill:#B97231;}
</style>
<g id="Capa_1_1_">
	<g>
		<g>
			<g>
				<path class="st0" d="M172.5,211.1c-52.4,0-95.1-42.7-95.1-95.1s42.7-95.1,95.1-95.1s95.1,42.7,95.1,95.1S225,211.1,172.5,211.1z
					 M172.5,39.3c-42.3,0-76.6,34.4-76.6,76.6s34.4,76.6,76.6,76.6c42.3,0,76.6-34.4,76.6-76.6S214.8,39.3,172.5,39.3z"/>
			</g>
			<g>
				<path class="st0" d="M38.7,279.2c-8,0-15.6-3.1-21.3-8.8c0,0,0,0-0.1-0.1c-5.7-5.7-8.8-13.3-8.8-21.3c0-8.1,3.1-15.6,8.8-21.3
					l47.3-47.3c1.7-1.7,4.1-2.7,6.5-2.7s4.8,1,6.5,2.7l29.6,29.6c3.6,3.6,3.6,9.4,0,13.1L60,270.3C54.3,276,46.7,279.2,38.7,279.2z
					 M30.3,257.2C30.4,257.2,30.4,257.2,30.3,257.2c2.3,2.3,5.2,3.5,8.3,3.5s6.1-1.2,8.3-3.4l40.8-40.8l-16.6-16.6l-40.8,40.8
					c-2.2,2.2-3.4,5.1-3.4,8.3C27,252.1,28.2,255,30.3,257.2z"/>
			</g>
			<g>
				<path class="st0" d="M86,210.9c-2.4,0-4.7-0.9-6.5-2.7c-3.6-3.6-3.6-9.4,0-13.1l25.4-25.4c3.6-3.6,9.4-3.6,13.1,0
					c3.6,3.6,3.6,9.4,0,13.1l-25.4,25.4C90.7,210,88.4,210.9,86,210.9z"/>
			</g>
		</g>
		<g>
			<g>
				<path class="st0" d="M196.4,231c-24.2,0-48.5-9.2-67-27.5l-24-20.2c-3.9-3.3-4.4-9.1-1.1-13s9.1-4.4,13-1.1l24.3,20.5
					c0.2,0.2,0.4,0.3,0.6,0.5c29.9,29.9,78.5,29.9,108.4,0c29.8-29.8,29.9-78.2,0.3-108.1l-25.7-21.8c-3.9-3.3-4.4-9.1-1.1-13
					c3.3-3.9,9.1-4.4,13-1.1l26,22.1c0.2,0.2,0.4,0.3,0.6,0.5c37.1,37.1,37.1,97.4,0,134.5C245.1,221.8,220.8,231,196.4,231z"/>
			</g>
		</g>
	</g>
</g>
</svg>
