<?xml version="1.0" encoding="utf-8"?>
<!-- Generator: Adobe Illustrator 22.0.1, SVG Export Plug-In . SVG Version: 6.00 Build 0)  -->
<svg version="1.1" id="Capa_1" xmlns="http://www.w3.org/2000/svg" xmlns:xlink="http://www.w3.org/1999/xlink" x="0px" y="0px"
	 viewBox="0 0 300 300" style="enable-background:new 0 0 300 300;" xml:space="preserve">
<style type="text/css">
	.st0{fill:#B97231;}
</style>
<g id="Capa_2_1_">
	<g>
		<g>
			<path class="st0" d="M197.3,288H74.4c-14.2,0-25.8-11.6-25.8-25.8V107.7c0-14.2,11.6-25.8,25.8-25.8h122.9
				c15.2,0,27.6,12.4,27.6,27.6v150.9C225,275.6,212.6,288,197.3,288z M74.4,100.3c-4,0-7.3,3.3-7.3,7.3v154.6c0,4,3.3,7.3,7.3,7.3
				h122.9c5,0,9.2-4.1,9.2-9.2V109.5c0-5-4.1-9.2-9.2-9.2H74.4z"/>
		</g>
		<g>
			<path class="st0" d="M223.7,288h-26.4c-5.1,0-9.2-4.1-9.2-9.2s4.1-9.2,9.2-9.2h26.4c5,0,9.2-4.1,9.2-9.2V109.5
				c0-5-4.1-9.2-9.2-9.2h-26.4c-5.1,0-9.2-4.1-9.2-9.2s4.1-9.2,9.2-9.2h26.4c15.2,0,27.6,12.4,27.6,27.6v150.9
				C251.3,275.6,238.9,288,223.7,288z"/>
		</g>
		<g>
			<path class="st0" d="M170.1,133c-5.1,0-9.2-4.1-9.2-9.2V57.5c0-14.9-12.1-27-27-27s-27,12.1-27,27v66.3c0,5.1-4.1,9.2-9.2,9.2
				s-9.2-4.1-9.2-9.2V57.5C88.5,32.4,108.9,12,134,12s45.5,20.4,45.5,45.5v66.3C179.3,128.8,175.2,133,170.1,133z"/>
		</g>
		<g>
			<path class="st0" d="M206.3,100.3c-5.1,0-9.2-4.1-9.2-9.2V57.5c0-14.9-12.1-27-27-27s-27,12.1-27,27v33.6c0,5.1-4.1,9.2-9.2,9.2
				s-9.2-4.1-9.2-9.2V57.5c0-25.1,20.4-45.5,45.5-45.5s45.5,20.4,45.5,45.5v33.6C215.5,96.2,211.4,100.3,206.3,100.3z"/>
		</g>
	</g>
</g>
</svg>
