<?xml version="1.0" encoding="utf-8"?>
<!-- Generator: Adobe Illustrator 22.0.1, SVG Export Plug-In . SVG Version: 6.00 Build 0)  -->
<svg version="1.1" id="Capa_1" xmlns="http://www.w3.org/2000/svg" xmlns:xlink="http://www.w3.org/1999/xlink" x="0px" y="0px"
	 viewBox="0 0 300 300" style="enable-background:new 0 0 300 300;" xml:space="preserve">
<style type="text/css">
	.st0{display:none;}
	.st1{display:inline;}
	.st2{clip-path:url(#SVGID_2_);fill:#FFFFFF;}
	.st3{clip-path:url(#SVGID_4_);fill:#D8D8D8;}
	.st4{clip-path:url(#SVGID_6_);fill:#FFFFFF;}
	.st5{clip-path:url(#SVGID_8_);fill:#EAEAEA;}
	.st6{fill:#FFFFFF;}
	.st7{display:inline;fill:#FFFFFF;}
</style>
<g class="st0">
	<g class="st1">
		<g>
			<g>
				<defs>
					<path id="SVGID_1_" d="M91.2,174.4v-9.7c0-3.6-2-5.8-5.8-6.1c-2,0-3.8,0.5-5.3,2.8c-1-1.8-2.8-2.8-5.1-2.8
						c-1.5,0-3.3,0.5-4.6,2.3v-1.8h-3v15.2h3v-8.6c0-2.5,1.5-4.1,3.8-4.1s3.3,1.5,3.3,4.1v8.6h3v-8.6c0-2.5,1.5-4.1,3.8-4.1
						s3.6,1.5,3.6,4.1v8.6H91.2z M140.5,159.2h-5.6v-4.6h-3v4.6h-3.3v2.8h3.3v7.1c0,3.6,1.3,5.6,5.1,5.6c1.5,0,3-0.5,4.1-1.3l-1-2.8
						c-1,0.5-2,0.8-2.8,0.8c-1.5,0-2.3-1-2.3-2.5v-7.1h5.6V159.2z M168.7,158.9c-1.8,0-3.3,0.8-4.1,2.3v-1.8h-3v15.2h3V166
						c0-2.5,1.3-4.1,3.3-4.1c0.8,0,1.3,0,2,0.5l1-2.8C170.2,158.9,169.2,158.9,168.7,158.9z M126,160.5c-1.5-1-3.8-1.5-6.1-1.5
						c-3.8,0-6.1,1.8-6.1,4.8c0,2.5,1.8,4.1,5.1,4.3l1.5,0.3c1.8,0.3,2.8,0.8,2.8,1.8c0,1.3-1.3,2-3.6,2s-3.8-0.8-5.1-1.5l-1.5,2.3
						c2.3,1.5,4.8,2,6.6,2c4.3,0,6.9-2,6.9-4.8c0-2.5-1.8-4.1-5.1-4.6l-1.5-0.3c-1.5-0.3-2.8-0.5-2.8-1.5s1.3-1.8,3-1.8
						c2,0,3.8,0.8,4.8,1.3L126,160.5z M172,166.8c0,4.6,3,7.9,7.9,7.9c2.3,0,3.8-0.5,5.3-1.8l-1.5-2.3c-1.3,0.8-2.5,1.3-4.1,1.3
						c-2.5,0-4.6-2-4.6-5.1c0-3,2-5.1,4.6-5.1c1.5,0,2.8,0.5,4.1,1.3l1.5-2.3c-1.5-1.3-3-1.8-5.3-1.8C175,158.9,172,162.2,172,166.8
						z M150.6,158.9c-4.3,0-7.4,3.3-7.4,7.9c0,4.8,3,7.9,7.6,7.9c2.3,0,4.3-0.5,6.1-2l-1.5-2.3c-1.3,1-2.8,1.5-4.3,1.5
						c-2,0-4.3-1.3-4.6-3.8H158c0-0.5,0-0.8,0-1.3C157.7,162,155,158.9,150.6,158.9z M150.6,161.7c2.3,0,3.8,1.5,4.1,3.8h-8.1
						C146.8,163.2,148.3,161.7,150.6,161.7z M109.7,166.8v-7.6h-3v1.8c-1-1.3-2.8-2.3-4.8-2.3c-4.3,0-7.4,3.3-7.4,7.9
						c0,4.6,3.3,7.9,7.4,7.9c2,0,3.8-0.8,4.8-2.3v1.8h3V166.8z M97.3,166.8c0-2.8,1.8-5.1,4.8-5.1c2.8,0,4.6,2.3,4.6,5.1
						c0,3-1.8,5.1-4.6,5.1C99.3,171.9,97.3,169.6,97.3,166.8z M214.4,158.9c-1.8,0-3.3,0.8-4.1,2.3v-1.8h-3v15.2h3V166
						c0-2.5,1.3-4.1,3.3-4.1c0.8,0,1.3,0,2,0.5l1-2.8C215.9,158.9,214.9,158.9,214.4,158.9z M238.8,172.1c0.3,0,0.5,0,0.5,0
						c0.3,0,0.3,0.3,0.5,0.3c0.3,0.3,0.3,0.3,0.3,0.5s0,0.3,0,0.5c0,0.3,0,0.5,0,0.5c0,0.3-0.3,0.3-0.3,0.5
						c-0.3,0.3-0.3,0.3-0.5,0.3c-0.3,0-0.5,0-0.5,0c-0.3,0-0.5,0-0.5,0c-0.3,0-0.3-0.3-0.5-0.3c-0.3-0.3-0.3-0.3-0.3-0.5
						c0-0.3,0-0.3,0-0.5c0-0.3,0-0.5,0-0.5c0-0.3,0.3-0.3,0.3-0.5c0.3-0.3,0.3-0.3,0.5-0.3C238.3,172.1,238.5,172.1,238.8,172.1z
						 M238.8,174.9c0.3,0,0.3,0,0.5,0c0.3,0,0.3-0.3,0.3-0.3l0.3-0.3c0-0.3,0-0.3,0-0.5s0-0.3,0-0.5c0-0.3-0.3-0.3-0.3-0.3l-0.3-0.3
						c-0.3,0-0.3,0-0.5,0s-0.3,0-0.5,0c-0.3,0-0.3,0.3-0.3,0.3l-0.3,0.3c0,0.3,0,0.3,0,0.5s0,0.3,0,0.5c0,0.3,0.3,0.3,0.3,0.3
						l0.3,0.3C238.5,174.9,238.5,174.9,238.8,174.9z M238.8,172.9c0.3,0,0.3,0,0.5,0l0.3,0.3v0.3c0,0-0.3,0-0.3,0.3l0.5,0.5h-0.3
						l-0.5-0.5h-0.3v0.5h-0.3v-1.5h0.3V172.9z M238.5,173.2L238.5,173.2L238.5,173.2l0.5,0.3c0,0,0,0,0-0.3c0,0,0,0,0-0.3
						C239,172.9,239,172.9,238.5,173.2L238.5,173.2L238.5,173.2z M202.7,166.8v-7.6h-3v1.8c-1-1.3-2.8-2.3-4.8-2.3
						c-4.3,0-7.4,3.3-7.4,7.9c0,4.6,3.3,7.9,7.4,7.9c2,0,3.8-0.8,4.8-2.3v1.8h3V166.8z M190.5,166.8c0-2.8,1.8-5.1,4.8-5.1
						c2.8,0,4.6,2.3,4.6,5.1c0,3-1.8,5.1-4.6,5.1C192.3,171.9,190.5,169.6,190.5,166.8z M233.2,166.8v-13.7h-3v7.9
						c-1-1.3-2.8-2.3-4.8-2.3c-4.3,0-7.4,3.3-7.4,7.9c0,4.6,3.3,7.9,7.4,7.9c2,0,3.8-0.8,4.8-2.3v1.8h3V166.8z M221,166.8
						c0-2.8,1.8-5.1,4.8-5.1c2.8,0,4.6,2.3,4.6,5.1c0,3-1.8,5.1-4.6,5.1C222.8,171.9,221,169.6,221,166.8z"/>
				</defs>
				<clipPath id="SVGID_2_">
					<use xlink:href="#SVGID_1_"  style="overflow:visible;"/>
				</clipPath>
				<rect x="54.6" y="140.4" class="st2" width="198.4" height="47.5"/>
			</g>
		</g>
	</g>
	<g class="st1">
		<g>
			<g>
				<defs>
					<rect id="SVGID_3_" x="122.4" y="44.1" width="54.9" height="89.7"/>
				</defs>
				<clipPath id="SVGID_4_">
					<use xlink:href="#SVGID_3_"  style="overflow:visible;"/>
				</clipPath>
				<rect x="109.7" y="31.4" class="st3" width="80.3" height="115.1"/>
			</g>
		</g>
	</g>
	<g class="st1">
		<g>
			<g>
				<defs>
					<path id="SVGID_5_" d="M128.3,88.8c0-18.3,8.6-34.3,21.8-44.7c-9.7-7.6-21.8-12.2-35.3-12.2c-31.5,0-56.9,25.4-56.9,56.9
						s25.4,56.9,56.9,56.9c13.2,0,25.4-4.6,35.3-12.2C136.7,123.1,128.3,106.9,128.3,88.8"/>
				</defs>
				<clipPath id="SVGID_6_">
					<use xlink:href="#SVGID_5_"  style="overflow:visible;"/>
				</clipPath>
				<rect x="45" y="19.2" class="st4" width="117.6" height="139.4"/>
			</g>
		</g>
	</g>
	<g class="st1">
		<g>
			<g>
				<defs>
					<path id="SVGID_7_" d="M242.1,88.8c0,31.5-25.4,56.9-56.9,56.9c-13.2,0-25.4-4.6-35.3-12.2c13.2-10.4,21.8-26.7,21.8-44.7
						c0-18.3-8.6-34.3-21.8-44.7c9.7-7.6,21.8-12.2,35.3-12.2C216.7,31.9,242.1,57.3,242.1,88.8"/>
				</defs>
				<clipPath id="SVGID_8_">
					<use xlink:href="#SVGID_7_"  style="overflow:visible;"/>
				</clipPath>
				<rect x="137.2" y="19.2" class="st5" width="117.6" height="139.4"/>
			</g>
		</g>
	</g>
</g>
<g id="Page-1" class="st0">
	<g id="visa" class="st1">
		<polygon id="Shape" class="st6" points="109.8,191 123.6,109.7 145.8,109.7 131.9,191 		"/>
		<path id="path13" class="st6" d="M212.1,111.4c-4.4-1.6-11.3-3.4-19.9-3.4c-21.9,0-37.4,11-37.5,26.9c-0.1,11.7,11,18.2,19.4,22.1
			c8.6,4,11.5,6.5,11.5,10.1c-0.1,5.5-6.9,7.9-13.3,7.9c-8.9,0-13.6-1.2-20.9-4.3l-2.9-1.3l-3.1,18.2c5.2,2.3,14.8,4.2,24.7,4.3
			c23.3,0,38.5-10.9,38.6-27.8c0.1-9.3-5.8-16.3-18.6-22.1c-7.8-3.8-12.5-6.3-12.5-10.1c0-3.4,4-7,12.7-7c7.3-0.1,12.5,1.5,16.6,3.1
			l2,0.9L212.1,111.4"/>
		<path id="Path" class="st6" d="M269.1,109.7H252c-5.3,0-9.3,1.4-11.6,6.7L207.4,191h23.3c0,0,3.8-10,4.7-12.2c2.5,0,25.2,0,28.4,0
			c0.7,2.8,2.7,12.2,2.7,12.2h20.6L269.1,109.7z M242,162.2c1.8-4.7,8.8-22.7,8.8-22.7c-0.1,0.2,1.8-4.7,2.9-7.8l1.5,7
			c0,0,4.2,19.4,5.1,23.5L242,162.2L242,162.2z"/>
		<path id="path16" class="st6" d="M13.2,109.7l-0.3,1.7c8.8,2.1,16.6,5.2,23.5,9L56,190.9l23.5,0l34.9-81.2H90.9l-21.7,55.5
			l-2.3-11.3c-0.1-0.3-0.2-0.7-0.3-1L59,116.5c-1.3-5.2-5.2-6.7-10.1-6.9H13.2z"/>
	</g>
</g>
<g class="st0">
	<path class="st7" d="M199.9-26.6h-99.8C55.8-26.6,20,9.3,20,53.5v99.8c0,44.2,35.9,80.1,80.1,80.1h99.8c44.3,0,80.1-35.9,80.1-80.1
		V53.5C280,9.3,244.2-26.6,199.9-26.6z M255.1,143.8c0,35.8-29,64.7-64.7,64.7h-80.6c-35.8,0-64.7-29-64.7-64.7V63.1
		c0-35.7,29-64.7,64.7-64.7h80.6c35.7,0,64.7,29,64.7,64.7V143.8z"/>
	<path class="st7" d="M153.5,35.4c-37.8,0-68.5,30.7-68.5,68.5c0,37.8,30.7,68.5,68.5,68.5c37.8,0,68.5-30.7,68.5-68.5
		C222,66.1,191.3,35.4,153.5,35.4z M153.5,145.1c-22.8,0-41.2-18.5-41.2-41.2c0-22.8,18.4-41.2,41.2-41.2
		c22.8,0,41.2,18.4,41.2,41.2C194.7,126.6,176.2,145.1,153.5,145.1z"/>
	<path class="st7" d="M234.7,34.3c0,9.6-7.8,17.4-17.4,17.4c-9.6,0-17.4-7.8-17.4-17.4c0-9.6,7.8-17.4,17.4-17.4
		C226.8,16.9,234.7,24.7,234.7,34.3z"/>
</g>
<path class="st6" d="M194.2,55.3h30.1V8h-37.4l0,0h-7.7c0,0-28.4-0.7-46.4,22.8c0,0-12.3,11.6-12.5,45.6h0v35.5H75.7v50.2h44.6V292
	h51.4V162.2h44.2l6.2-50.2h-50.4V76.4h0C171.8,72.5,173.6,55,194.2,55.3z"/>
</svg>
