<?xml version="1.0" encoding="utf-8"?>
<!-- Generator: Adobe Illustrator 22.0.1, SVG Export Plug-In . SVG Version: 6.00 Build 0)  -->
<svg version="1.1" id="Capa_1" xmlns="http://www.w3.org/2000/svg" xmlns:xlink="http://www.w3.org/1999/xlink" x="0px" y="0px"
	 viewBox="0 0 250 250" style="enable-background:new 0 0 250 250;" xml:space="preserve">
<style type="text/css">
	.st0{display:none;}
	.st1{display:inline;}
	.st2{fill:#4E3F92;}
	.st3{fill:#71B630;}
	.st4{display:none;fill:#70B630;}
	.st5{fill:#E6C8BD;}
</style>
<g class="st0">
	<g class="st1">
		<path class="st2" d="M93.2,238.5c-2,0-3.7-1.6-3.7-3.7v-27.1c0-2,1.6-3.7,3.7-3.7s3.7,1.6,3.7,3.7v27.1
			C96.9,236.9,95.2,238.5,93.2,238.5z"/>
	</g>
	<g class="st1">
		<path class="st2" d="M187.1,124.9c-2,0-3.7-1.6-3.7-3.7v-9.8c0-17.7-6.9-34.4-19.4-46.9c-0.7-0.7-1.1-1.6-1.1-2.6V15.2
			c0-2,1.6-3.7,3.7-3.7c2,0,3.7,1.6,3.7,3.7v45.3c13.2,13.8,20.5,31.8,20.5,51v9.8C190.8,123.2,189.2,124.9,187.1,124.9z"/>
	</g>
	<g class="st1">
		<path class="st2" d="M98.3,74.1c-2,0-3.7-1.6-3.7-3.7V15.2c0-2,1.6-3.7,3.7-3.7s3.7,1.6,3.7,3.7v55.2
			C102,72.4,100.3,74.1,98.3,74.1z"/>
	</g>
	<g class="st1">
		<path class="st2" d="M102.7,170h-37c-7.6,0-13.7-6.2-13.7-13.7c0-7.6,6.2-13.7,13.7-13.7H70c2,0,3.7,1.6,3.7,3.7
			c0,2-1.6,3.7-3.7,3.7h-4.3c-3.5,0-6.4,2.9-6.4,6.4s2.9,6.4,6.4,6.4h37c2,0,3.7,1.6,3.7,3.7C106.4,168.3,104.7,170,102.7,170z"/>
	</g>
	<g class="st1">
		<path class="st2" d="M109.2,190h-33c-7.6,0-13.7-6.2-13.7-13.7c0-7.6,6.2-13.7,13.7-13.7c2,0,3.7,1.6,3.7,3.7c0,2-1.6,3.7-3.7,3.7
			c-3.5,0-6.4,2.9-6.4,6.4s2.9,6.4,6.4,6.4h31.5l31.9-31.9c1.4-1.4,3.8-1.4,5.2,0s1.4,3.8,0,5.2l-33,32.9
			C111.1,189.7,110.1,190,109.2,190z"/>
	</g>
	<g class="st1">
		<path class="st2" d="M125.5,210.1H87.7c-7.6,0-13.7-6.2-13.7-13.7c0-7.6,6.2-13.7,13.7-13.7c2,0,3.7,1.6,3.7,3.7
			c0,2-1.6,3.7-3.7,3.7c-3.5,0-6.4,2.9-6.4,6.4s2.9,6.4,6.4,6.4h36.1l27.1-28.7c1.4-1.5,3.7-1.5,5.2-0.1s1.5,3.7,0.1,5.2L128.1,209
			C127.4,209.7,126.5,210.1,125.5,210.1z"/>
	</g>
	<g class="st1">
		<path class="st3" d="M79.7,155.7c-3.3,0-6.6-1.3-9.1-3.8l-16.2-16.2c-5-5-5-13.2,0-18.2s13.2-5,18.2,0l16.2,16.2
			c5,5,5,13.2,0,18.2C86.2,154.5,83,155.7,79.7,155.7z M63.5,121.2c-1.4,0-2.8,0.5-3.9,1.6c-2.1,2.2-2.1,5.6,0,7.8l16.2,16.2
			c2.1,2.1,5.7,2.1,7.8,0c2.1-2.2,2.1-5.6,0-7.8l-16.2-16.2C66.3,121.7,64.9,121.2,63.5,121.2z"/>
	</g>
	<g class="st1">
		<path class="st3" d="M109.5,107.4c-3.3,0-6.6-1.3-9.1-3.8L78,81.2c-5-5-5-13.2,0-18.2s13.2-5,18.2,0l22.4,22.4c5,5,5,13.2,0,18.2
			C116.1,106.2,112.8,107.4,109.5,107.4z M87.1,66.6c-1.4,0-2.8,0.5-3.9,1.6c-2.1,2.2-2.1,5.6,0,7.8l22.4,22.4
			c2.1,2.1,5.7,2.1,7.8,0c2.1-2.2,2.1-5.6,0-7.8L91,68.3C89.9,67.2,88.5,66.6,87.1,66.6z"/>
	</g>
	<g class="st1">
		<path class="st3" d="M167.8,134.5c-0.9,0-1.9-0.4-2.6-1.1l-20.7-20.7c-5.4-5.4-5.4-14.2,0-19.7c5.4-5.4,14.2-5.4,19.7,0l29.9,29.9
			c1.4,1.4,1.4,3.8,0,5.2c-1.4,1.4-3.8,1.4-5.2,0L159,98.3c-2.6-2.6-6.7-2.6-9.3,0s-2.6,6.7,0,9.3l20.7,20.7c1.4,1.4,1.4,3.8,0,5.2
			C169.6,134.2,168.7,134.5,167.8,134.5z"/>
	</g>
	<g class="st1">
		<path class="st3" d="M105.2,155.3c-3.3,0-6.6-1.3-9.1-3.8l-36-36c-5-5-5-13.2,0-18.2s13.2-5,18.2,0l36,36c5,5,5,13.2,0,18.2l0,0
			C111.8,154,108.5,155.3,105.2,155.3z M111.7,148.9L111.7,148.9L111.7,148.9z M69.2,100.8c-1.4,0-2.8,0.5-3.9,1.6
			c-2.2,2.2-2.2,5.7,0,7.9l36,36c2.2,2.2,5.7,2.2,7.9,0l0,0c2.2-2.2,2.2-5.7,0-7.9l-36-36C72,101.4,70.6,100.8,69.2,100.8z"/>
	</g>
	<g class="st1">
		<path class="st3" d="M112.7,136.7c-3.4,0-6.7-1.3-9.1-3.8l-36-36c-2.4-2.4-3.8-5.6-3.8-9.1c0-3.4,1.3-6.7,3.8-9.1
			c4.8-4.8,13.3-4.8,18.2,0l36,36c2.4,2.4,3.8,5.6,3.8,9.1c0,3.4-1.3,6.7-3.8,9.1C119.3,135.4,116.1,136.7,112.7,136.7z M76.6,82.3
			c-1.4,0-2.8,0.5-3.9,1.6c-2.1,2.2-2.1,5.6,0,7.8l36,36c2.1,2.1,5.7,2.1,7.8,0c2.1-2.2,2.1-5.6,0-7.8l-36-36
			C79.5,82.8,78,82.3,76.6,82.3z"/>
	</g>
	<g class="st1">
		<path class="st3" d="M166.1,238.5c-2,0-3.7-1.6-3.7-3.7v-34.6c0-0.9,0.3-1.7,0.9-2.4l24.4-28.9c2.8-3.3,4.3-7.5,4.3-11.8v-17.3
			c0-2.5-0.5-5-1.5-7.3l-2.4-5.4c-0.8-1.9,0-4,1.9-4.8s4,0,4.8,1.9l2.4,5.4c1.4,3.2,2.1,6.7,2.1,10.2v17.3c0,6-2.1,11.9-6,16.5
			l-23.6,27.9v33.3C169.7,236.9,168.1,238.5,166.1,238.5z"/>
	</g>
	<g class="st1">
		<path class="st3" d="M168,162.4c-0.5,0-1-0.1-1.5-0.3c-1.9-0.8-2.7-3-1.9-4.8c6.9-15.6,0.8-23.5,0.5-23.8
			c-1.3-1.6-1.1-3.9,0.5-5.1c1.5-1.3,3.8-1.1,5.1,0.4c0.4,0.5,9.5,11.4,0.6,31.5C170.8,161.6,169.4,162.4,168,162.4z"/>
	</g>
</g>
<g class="st0">
	<g class="st1">
		<path class="st2" d="M138.6,189.2c-5.8,0-10.6-4.7-10.6-10.6c0-2,1.6-3.7,3.7-3.7c2,0,3.7,1.6,3.7,3.7c0,1.8,1.4,3.2,3.2,3.2
			s3.2-1.4,3.2-3.2v-52.4c0-2,1.6-3.7,3.7-3.7c2,0,3.7,1.6,3.7,3.7v52.4C149.2,184.4,144.4,189.2,138.6,189.2z"/>
	</g>
	<g class="st1">
		<g>
			<path class="st2" d="M65.9,158.5c-0.9,0-1.9-0.4-2.6-1.1c-1.4-1.4-1.4-3.8,0-5.2l5-5v-8.6c0-1,0.4-2,1.2-2.7l18.7-17.6
				c1.5-1.4,3.8-1.3,5.2,0.2c1.4,1.5,1.3,3.8-0.2,5.2l-17.5,16.5v8.5c0,1-0.4,1.9-1.1,2.6l-6.1,6.1
				C67.8,158.1,66.9,158.5,65.9,158.5z"/>
		</g>
		<g>
			<path class="st2" d="M99.8,192.4c-0.9,0-1.9-0.4-2.6-1.1c-1.4-1.4-1.4-3.8,0-5.2l8.3-8.3c1.4-1.4,3.7-1.4,5.2,0
				c1.4,1.4,1.4,3.8,0,5.2l-8.3,8.3C101.7,192,100.8,192.4,99.8,192.4z"/>
		</g>
		<g>
			<path class="st2" d="M60.9,240.8c-0.9,0-1.9-0.4-2.6-1.1c-1.4-1.4-1.4-3.8,0-5.2l41.1-41.1L60.9,155l-41.1,41.1
				c-1.4,1.4-3.8,1.4-5.2,0s-1.4-3.8,0-5.2l43.7-43.7c1.4-1.4,3.8-1.4,5.2,0l43.7,43.7c1.4,1.4,1.4,3.8,0,5.2l-43.7,43.7
				C62.8,240.5,61.8,240.8,60.9,240.8z"/>
		</g>
		<g>
			<path class="st2" d="M92,209.7c-0.9,0-1.9-0.4-2.6-1.1l-43.7-43.7c-1.4-1.4-1.4-3.8,0-5.2s3.8-1.4,5.2,0l43.7,43.7
				c1.4,1.4,1.4,3.8,0,5.2C93.9,209.4,92.9,209.7,92,209.7z"/>
		</g>
	</g>
	<g class="st1">
		<g>
			<path class="st2" d="M184.1,158.5c-0.9,0-1.9-0.4-2.6-1.1l-6.1-6.1c-0.7-0.7-1.1-1.6-1.1-2.6v-8.5l-17.5-16.5
				c-1.5-1.4-1.5-3.7-0.2-5.2c1.4-1.5,3.7-1.5,5.2-0.2l18.7,17.6c0.7,0.7,1.2,1.7,1.2,2.7v8.6l5,5c1.4,1.4,1.4,3.8,0,5.2
				C186,158.1,185,158.5,184.1,158.5z"/>
		</g>
		<g>
			<path class="st2" d="M150.2,192.4c-0.9,0-1.9-0.4-2.6-1.1l-6-6c-1.4-1.4-1.4-3.8,0-5.2s3.8-1.4,5.2,0l6,6c1.4,1.4,1.4,3.8,0,5.2
				C152,192,151.1,192.4,150.2,192.4z"/>
		</g>
		<g>
			<path class="st2" d="M189.1,240.8c-0.9,0-1.9-0.4-2.6-1.1L142.8,196c-1.4-1.4-1.4-3.8,0-5.2l43.7-43.7c1.4-1.4,3.8-1.4,5.2,0
				l43.7,43.7c1.4,1.4,1.4,3.8,0,5.2s-3.8,1.4-5.2,0l-41.1-41l-38.5,38.5l41.1,41.1c1.4,1.4,1.4,3.8,0,5.2
				C191,240.5,190.1,240.8,189.1,240.8z"/>
		</g>
		<g>
			<path class="st2" d="M158,209.7c-0.9,0-1.9-0.4-2.6-1.1c-1.4-1.4-1.4-3.8,0-5.2l43.7-43.7c1.4-1.4,3.8-1.4,5.2,0s1.4,3.8,0,5.2
				l-43.7,43.7C159.9,209.4,158.9,209.7,158,209.7z"/>
		</g>
	</g>
	<g class="st1">
		<g>
			<path class="st3" d="M111.1,184.8c-5.8,0-10.6-4.7-10.6-10.6V121c0-2,1.6-3.7,3.7-3.7s3.7,1.6,3.7,3.7v53.2
				c0,1.8,1.4,3.2,3.2,3.2s3.2-1.4,3.2-3.2v-46.4c0-2,1.6-3.7,3.7-3.7s3.7,1.6,3.7,3.7v46.4C121.6,180.1,116.9,184.8,111.1,184.8z"
				/>
		</g>
		<g>
			<path class="st3" d="M124.8,195.2c-5.8,0-10.6-4.7-10.6-10.6v-56.8c0-2,1.6-3.7,3.7-3.7s3.7,1.6,3.7,3.7v56.8
				c0,1.8,1.4,3.2,3.2,3.2s3.2-1.4,3.2-3.2v-56.8c0-2,1.6-3.7,3.7-3.7c2,0,3.7,1.6,3.7,3.7v56.8
				C135.4,190.5,130.6,195.2,124.8,195.2z"/>
		</g>
		<g>
			<g>
				<path class="st3" d="M152.4,173c-5.8,0-10.6-4.7-10.6-10.6v-36.3c0-2,1.6-3.7,3.7-3.7c2,0,3.7,1.6,3.7,3.7v36.3
					c0,1.8,1.4,3.2,3.2,3.2s3.2-1.4,3.2-3.2V91.9l-6.1-6.1c-0.7-0.7-1.1-1.6-1.1-2.6v-8.6c0-2,1.6-3.7,3.7-3.7c2,0,3.7,1.6,3.7,3.7
					v7.1l6.1,6.1c0.7,0.7,1.1,1.6,1.1,2.6v72.1C162.9,168.3,158.2,173,152.4,173z"/>
			</g>
			<g>
				<path class="st3" d="M104.2,138.1c-0.9,0-1.9-0.4-2.6-1.1l-13.4-13.4c-0.7-0.7-1.1-1.6-1.1-2.6V98.1c0-1,0.4-1.9,1.1-2.6
					l12.4-12.4v-8.6c0-2,1.6-3.7,3.7-3.7s3.7,1.6,3.7,3.7v10.1c0,1-0.4,1.9-1.1,2.6L94.4,99.7v19.8l12.4,12.4c1.4,1.4,1.4,3.8,0,5.2
					C106,137.7,105.1,138.1,104.2,138.1z"/>
			</g>
			<g>
				<path class="st3" d="M159.3,78.3H97.4c-2,0-3.7-1.6-3.7-3.7V12.8c0-2,1.6-3.7,3.7-3.7s3.7,1.6,3.7,3.7V71h54.5V12.8
					c0-2,1.6-3.7,3.7-3.7c2,0,3.7,1.6,3.7,3.7v61.8C162.9,76.7,161.3,78.3,159.3,78.3z"/>
			</g>
			<g>
				<path class="st3" d="M159.3,60.5H97.4c-2,0-3.7-1.6-3.7-3.7s1.6-3.7,3.7-3.7h61.8c2,0,3.7,1.6,3.7,3.7S161.3,60.5,159.3,60.5z"
					/>
			</g>
		</g>
	</g>
</g>
<g class="st0">
	<g class="st1">
		<path class="st3" d="M103.6,226.4c-2,0-3.7-1.6-3.7-3.7v-45.9c0-2,1.6-3.7,3.7-3.7s3.7,1.6,3.7,3.7v45.9
			C107.2,224.8,105.6,226.4,103.6,226.4z"/>
	</g>
	<g class="st1">
		<path class="st3" d="M146,226.4c-2,0-3.7-1.6-3.7-3.7v-45.9c0-2,1.6-3.7,3.7-3.7c2,0,3.7,1.6,3.7,3.7v45.9
			C149.7,224.8,148,226.4,146,226.4z"/>
	</g>
	<g class="st1">
		<path class="st3" d="M86.2,237.1c-0.6,0-1.3-0.2-1.8-0.5c-1.2-0.7-1.9-1.9-1.9-3.2v-87.1c0-2,1.6-3.7,3.7-3.7s3.7,1.6,3.7,3.7V227
			l33.3-19.9c1.2-0.7,2.6-0.7,3.8,0l33.3,19.9v-80.6c0-2,1.6-3.7,3.7-3.7c2,0,3.7,1.6,3.7,3.7v87.1c0,1.3-0.7,2.5-1.9,3.2
			c-1.1,0.7-2.5,0.6-3.7,0l-36.9-22l-37,22.1C87.5,236.9,86.8,237.1,86.2,237.1z"/>
	</g>
	<g class="st1">
		<path class="st2" d="M140.7,163.6c-1,0-2-0.1-3-0.4l-11.8-3.5c-0.6-0.2-1.3-0.2-1.9,0l-11.8,3.5c-3.7,1.1-7.7,0.1-10.4-2.6L93,152
			c-0.4-0.4-1-0.7-1.6-0.9l-12.1-2.4c-3.8-0.7-6.8-3.5-8-7.1L67.5,130c-0.2-0.6-0.6-1.1-1.1-1.5l-9.6-7.7c-3-2.4-4.4-6.2-3.8-10
			l2-12.1c0.1-0.6,0-1.3-0.2-1.8L50,85.5c-1.5-3.5-1-7.6,1.3-10.6l7.4-9.8c0.4-0.5,0.6-1.1,0.7-1.7l0.9-12.3
			c0.3-3.8,2.6-7.2,6.1-8.8l11.1-5.2c0.6-0.3,1.1-0.7,1.4-1.2l6.5-10.4c2-3.3,5.6-5.2,9.5-5l12.3,0.6c0.6,0,1.3-0.1,1.8-0.4
			l10.6-6.2c3.3-1.9,7.4-1.9,10.7,0l0,0l10.6,6.2c0.5,0.3,1.2,0.4,1.8,0.4l12.3-0.6c3.8-0.2,7.5,1.7,9.5,5l6.5,10.4
			c0.3,0.5,0.8,1,1.4,1.2l11.1,5.2c3.5,1.6,5.8,5,6.1,8.8l0.9,12.3c0,0.6,0.3,1.2,0.7,1.7l7.4,9.8c2.3,3,2.8,7.1,1.3,10.6L195,96.8
			c-0.3,0.6-0.3,1.2-0.2,1.9l2,12.1c0.6,3.8-0.8,7.6-3.8,10l-9.6,7.7c-0.5,0.4-0.9,0.9-1.1,1.5l-3.8,11.7c-1.2,3.6-4.3,6.4-8,7.1
			l-12.1,2.4c-0.6,0.1-1.2,0.4-1.6,0.9l-8.8,8.6C146.1,162.5,143.4,163.6,140.7,163.6z M125,152.2c1,0,2,0.1,3,0.4l11.8,3.5
			c1.1,0.3,2.4,0,3.2-0.8l8.8-8.6c1.5-1.4,3.3-2.4,5.3-2.8l12.1-2.4c1.2-0.2,2.1-1.1,2.5-2.2l3.8-11.7c0.6-2,1.8-3.7,3.4-5l9.6-7.7
			c0.9-0.7,1.4-1.9,1.2-3.1l-2-12.1c-0.3-2-0.1-4.1,0.7-6l4.9-11.3c0.5-1.1,0.3-2.3-0.4-3.3l-7.4-9.8c-1.2-1.6-2-3.6-2.1-5.6
			l-0.9-12.3c-0.1-1.2-0.8-2.2-1.9-2.7l-11.1-5.2c-1.9-0.9-3.4-2.3-4.5-4l-6.5-10.4c-0.6-1-1.9-1.5-2.9-1.5l-12.3,0.6
			c-2.1,0.1-4.1-0.4-5.8-1.4l-10.6-6.2c-1-0.6-2.3-0.6-3.3,0L113,26.8c-1.8,1-3.8,1.6-5.8,1.4l-12.3-0.6c-1.2,0-2.3,0.5-2.9,1.5
			l-6.5,10.4c-1.1,1.7-2.7,3.1-4.5,4l-11.1,5.2c-1.1,0.5-1.8,1.5-1.9,2.7l-0.9,12.3c-0.2,2.1-0.9,4-2.1,5.6l-7.4,9.8
			c-0.7,0.9-0.9,2.2-0.4,3.3l4.9,11.3c0.8,1.9,1.1,3.9,0.7,6l-2,12.1c-0.2,1.2,0.3,2.3,1.2,3.1l9.6,7.7c1.6,1.3,2.8,3,3.4,5
			l3.8,11.7c0.4,1.1,1.3,2,2.5,2.2l12.1,2.4c2,0.4,3.9,1.4,5.3,2.8l8.8,8.6c0.8,0.8,2.1,1.1,3.2,0.8l11.8-3.5
			C123,152.3,124,152.2,125,152.2z"/>
	</g>
	<g class="st1">
		<path class="st2" d="M125,144.2c-30.9,0-56.1-25.2-56.1-56.1s25.2-56,56.1-56s56.1,25.1,56.1,56.1S155.9,144.2,125,144.2z
			 M125,39.4c-26.9,0-48.7,21.9-48.7,48.7c0,26.9,21.9,48.7,48.7,48.7s48.7-21.9,48.7-48.7S151.9,39.4,125,39.4z"/>
	</g>
	<g class="st1">
		<path class="st3" d="M105.3,121.8c-0.8,0-1.5-0.2-2.2-0.7c-1.1-0.8-1.7-2.2-1.5-3.6l3.4-19.8l-14.4-14c-1-1-1.4-2.4-0.9-3.8
			c0.4-1.3,1.6-2.3,3-2.5l19.9-2.9l8.9-18c0.6-1.3,1.9-2,3.3-2l0,0c1.4,0,2.7,0.8,3.3,2l8.9,18l19.9,2.9c1.4,0.2,2.5,1.2,3,2.5
			c0.4,1.3,0.1,2.8-0.9,3.8l-14.4,14l3.4,19.8c0.2,1.4-0.3,2.8-1.5,3.6c-1.1,0.8-2.6,0.9-3.9,0.3l-17.8-9.4l-17.8,9.4
			C106.4,121.7,105.9,121.8,105.3,121.8z M124.8,104.2c0.6,0,1.2,0.1,1.7,0.4l12.9,6.8L137,97c-0.2-1.2,0.2-2.4,1.1-3.2l10.5-10.2
			L134,81.5c-1.2-0.2-2.2-0.9-2.8-2l-6.5-13.1l-6.5,13.1c-0.5,1.1-1.6,1.8-2.8,2l-14.5,2.1l10.5,10.2c0.9,0.8,1.3,2.1,1.1,3.2
			l-2.5,14.4l12.9-6.8C123.6,104.4,124.2,104.2,124.8,104.2z"/>
	</g>
</g>
<g class="st0">
	<g class="st1">
		<path class="st2" d="M160,72.4c2.5,0,5,1,6.9,2.9l42.8,42.8c3.8,3.8,3.8,10,0,13.8l-42.8,42.8c-3.8,3.8-10,3.8-13.8,0
			s-3.8-10,0-13.8L189,125l-35.9-35.9c-3.8-3.8-3.8-10,0-13.8C155,73.4,157.5,72.4,160,72.4z"/>
	</g>
	<g class="st1">
		<path class="st2" d="M47.2,115.2h155.7c5.4,0,9.8,4.4,9.8,9.8c0,5.4-4.4,9.8-9.8,9.8H47.2c-5.4,0-9.8-4.4-9.8-9.8
			C37.4,119.6,41.8,115.2,47.2,115.2z"/>
	</g>
</g>
<path class="st4" d="M164.8,21.2H85.2c-35.3,0-64,28.6-64,64v79.7c0,35.3,28.6,64,64,64h79.7c35.3,0,64-28.6,64-64V85.2
	C228.8,49.9,200.2,21.2,164.8,21.2z M128.1,174.6c-27.2,0-49.2-22-49.2-49.2s22-49.2,49.2-49.2s49.2,22,49.2,49.2
	S155.3,174.6,128.1,174.6z M184.4,79.4c-8.5,0-15.4-6.9-15.4-15.4s6.9-15.4,15.4-15.4s15.4,6.9,15.4,15.4
	C199.7,72.5,192.8,79.4,184.4,79.4z"/>
<path class="st4" d="M145.5,25.6c0,0-19.9-0.5-32.5,16c0,0-8.6,8.1-8.8,31.9l0,0v24.8H73v35.2h31.2v90.9h36v-90.9h31l4.3-35.2h-35.3
	V73.5l0,0c0.1-2.8,1.3-15,15.8-14.8h21V25.6h-26.2H145.5z"/>
<path class="st4" d="M231,59.2c-7.8,3.5-16.2,5.8-25,6.8c9-5.4,15.9-13.9,19.1-24.1c-8.4,5-17.7,8.6-27.6,10.6
	c-8-8.5-19.2-13.7-31.8-13.7c-24,0-43.5,19.5-43.5,43.5c0,3.4,0.4,6.7,1.1,9.9c-36.1-1.8-68.2-19.1-89.7-45.5
	c-3.7,6.4-5.9,13.9-5.9,21.8c0,15.1,7.7,28.4,19.4,36.2c-7.1-0.2-13.9-2.2-19.7-5.4c0,0.2,0,0.4,0,0.6c0,21.1,15,38.7,34.9,42.6
	c-3.6,1-7.5,1.5-11.4,1.5c-2.8,0-5.5-0.3-8.2-0.8c5.5,17.3,21.6,29.9,40.6,30.2c-14.9,11.7-33.6,18.6-54,18.6c-3.5,0-7-0.2-10.4-0.6
	C38.1,203.8,61,211,85.6,211c80,0,123.8-66.3,123.8-123.8c0-1.9,0-3.8-0.1-5.6C217.8,75.6,225.2,67.9,231,59.2z"/>
<g>
	<path class="st5" d="M228.8,88.4c0-0.5-0.3-0.7-0.8-0.6c-4.2,0-15.4,0.1-16.8,0.1c-4.7,0.3-6.5,3.7-8,7.4
		c-4.4,10.6-22,53.1-26.4,63.8c-0.8,0.9-1.1,1.9-1.3,3.1c1.4,0,2.4,0,3.5,0c5.1,0,10.3,0,15.4,0c0.5,0.1,0.9-0.1,1.1-0.6
		c1-2.6,2.3-5.1,3-7.7c0.6-2.1,1.6-2.6,3.6-2.6c4,0.1,18.8-0.8,21.3,0.5c2.7,1.4,1.7,5.7,2.7,8.6c0.3,1,0.3,2,1.9,2
		c5.4-0.1,10.9,0,16.4,0C241.7,149,231.3,100.1,228.8,88.4z M205.4,135.8c3.1-9,6.3-18,9.4-26.9l5.9,27
		C220.6,135.9,209,135.9,205.4,135.8z"/>
	<path class="st5" d="M79.5,87.5c-3-0.2-4.2,1-5.2,3.6c-5.9,15.4-12.1,30.8-18.5,46.8c-0.5-1.5-0.7-2-0.8-2.6
		c-2.5-13.2-4.9-26.4-7.4-39.7c-0.8-4.1-4.9-8.1-8.8-8.1c-10.3-0.1-20.7,0-31,0c-1,0-2.1-0.1-2.3,1.2c-0.3,1.5,1.2,1.4,2,1.5
		c4.6,1.1,9,2.7,13.5,4.3c4.8,1.7,7.3,5,8.5,9.9c4.5,18.2,9.3,36.3,13.9,54.5c0.7,2.6,1.8,3.5,4.5,3.4c4.7-0.2,9.5-0.1,14.2,0
		c2,0.1,3.1-0.5,3.9-2.4c7.3-17.5,27.3-65.5,30.2-72.3C90.2,87.6,84.9,87.8,79.5,87.5z"/>
	<path class="st5" d="M173.9,129c-2.2-4.2-6.2-6.9-10.3-9.2c-4.2-2.4-8.7-4.4-12.4-7.6c-3.1-2.7-2.9-5.4,0.4-7.8
		c3.5-2.4,7.4-2.9,11.5-2.5c3.9,0.4,7.6,1.5,11.3,2.7c1.5,0.5,2.1,0.3,2.4-1.4c0.6-3.8,1.4-7.6,2.4-11.4c0.5-1.9,0.2-2.5-1.7-3
		c-7.9-1.9-15.5-3.5-23.9-1.6c-5.4,1.2-10.4,2.4-14.9,5.5c-12.2,8.4-14.4,26.9,1.4,35.2c4.2,2.2,8.2,4.7,12.2,7.2
		c2.7,1.7,4.3,4,3.2,7.3c-0.7,2-6.4,5.7-8.4,5.6c-5.5-0.4-11-0.3-16.3-2.1c-0.2-0.1-0.5-0.3-0.7-0.4c-0.3-0.1-0.5-0.2-0.8-0.3
		c-4.4-1.8-5-1.6-5.9,2.8c-0.3,1.5-0.6,3.1-1,4.6c-1.7,7.4-1.7,7.4,6,9.1c7.6,2,15.4,2.3,23.1,1c8.1-1.4,15.5-4.5,20.4-11.5
		C176.9,144.3,177.9,136.6,173.9,129z"/>
	<path class="st5" d="M106.4,87.6c-1.8,0-2.2,0.9-2.5,2.4c-0.6,3-10.9,51-15.4,72.3c5.9,0,11.6-0.1,17.3,0c2,0,2.3-1.2,2.6-2.7
		c2.6-12.2,12.8-59.9,15.3-71.9C117.8,87.6,112.1,87.7,106.4,87.6z"/>
</g>
</svg>
